<?xml version="1.0" encoding="utf-8"?>
<!-- Generator: Adobe Illustrator 16.0.0, SVG Export Plug-In . SVG Version: 6.00 Build 0)  -->
<!DOCTYPE svg PUBLIC "-//W3C//DTD SVG 1.1//EN" "http://www.w3.org/Graphics/SVG/1.1/DTD/svg11.dtd">
<svg version="1.1"
	 id="Layer_1" xmlns:dc="http://purl.org/dc/elements/1.1/" xmlns:cc="http://creativecommons.org/ns#" xmlns:rdf="http://www.w3.org/1999/02/22-rdf-syntax-ns#" xmlns:svg="http://www.w3.org/2000/svg" xmlns:sodipodi="http://sodipodi.sourceforge.net/DTD/sodipodi-0.dtd" xmlns:inkscape="http://www.inkscape.org/namespaces/inkscape"
	 xmlns="http://www.w3.org/2000/svg" xmlns:xlink="http://www.w3.org/1999/xlink" x="0px" y="0px" width="32px" height="32px"
	 viewBox="0 0 32 32" enable-background="new 0 0 32 32" xml:space="preserve">
<g transform="translate(0,-952.36218)">
	<path d="M16,956.842c-2.678,0-4.864,2.188-4.864,4.864c0,2.678,2.187,4.864,4.864,4.864s4.864-2.187,4.864-4.864
		C20.864,959.029,18.678,956.842,16,956.842z M16,958.378c1.848,0,3.328,1.481,3.328,3.328c0,1.848-1.48,3.328-3.328,3.328
		s-3.328-1.48-3.328-3.328C12.672,959.859,14.152,958.378,16,958.378z M16,967.082c-2.536,0-4.833,0.604-6.552,1.624
		c-1.72,1.02-2.921,2.52-2.921,4.265v5.008c0.002,0.343,0.23,0.643,0.561,0.736c2.516,0.694,5.257,1.104,8.12,1.168
		c0.005,0,0.011,0,0.016,0h1.552c0.006,0,0.012,0,0.017,0c2.863-0.064,5.604-0.474,8.12-1.168c0.33-0.094,0.559-0.394,0.561-0.736
		v-5.008c0-1.745-1.201-3.245-2.921-4.265C20.833,967.686,18.535,967.082,16,967.082z M16,968.618c2.287,0,4.341,0.562,5.768,1.408
		c1.428,0.847,2.168,1.915,2.168,2.944v4.384c-2.234,0.571-4.631,0.935-7.16,0.992H16.76h-1.52c-0.006-0.001-0.011,0-0.017,0
		c-2.528-0.058-4.925-0.421-7.16-0.992v-4.384c0-1.029,0.741-2.098,2.168-2.944C11.659,969.18,13.713,968.618,16,968.618z"/>
</g>
</svg>
