<?xml version="1.0" standalone="no"?>
<!DOCTYPE svg PUBLIC "-//W3C//DTD SVG 1.1//EN" "http://www.w3.org/Graphics/SVG/1.1/DTD/svg11.dtd">
<svg xmlns="http://www.w3.org/2000/svg">
<metadata>Generated by Fontastic.me</metadata>
<defs>
<font id="zerocode" horiz-adv-x="512">
<font-face font-family="zerocode" units-per-em="512" ascent="480" descent="-32"/>
<missing-glyph horiz-adv-x="512" />

<glyph glyph-name="admin" unicode="&#99;" d="M256 412c-87 0-157-70-157-156 0-86 70-156 157-156 87 0 157 70 157 156 0 86-70 156-157 156z m-96-259c20 35 56 56 96 56 40 0 77-22 96-56-25-23-59-37-96-37-37 0-71 14-96 37z m204 12c-17 26-42 45-71 54 20 13 35 35 35 60 0 40-32 71-71 71-40 0-71-31-71-71 0-25 13-47 34-60-29-8-55-28-71-54-22 25-35 56-35 91 0 77 64 141 142 141 78 0 142-64 142-141 0-35-13-66-34-91z m-108 60c-31 0-55 24-55 54 0 31 24 55 55 55 31 0 55-24 55-55 0-30-24-54-55-54z m236 86l-31 0c-4 18-11 35-21 50l22 22c3 3 3 8 0 11l-67 67c-3 3-8 3-11 0l-22-22c-15 9-33 16-51 21l0 30c0 5-3 8-8 8l-94 0c-5 0-8-3-8-8l0-30c-18-5-35-12-51-21l-22 22c-3 3-8 3-11 0l-67-67c-3-3-3-8 0-11l22-22c-10-15-17-32-21-50l-31 0c-5 0-8-3-8-8l0-94c0-4 3-8 8-8l31 0c4-18 11-35 21-50l-22-22c-3-3-3-8 0-11l67-67c3-3 8-3 11 0l22 22c15-9 33-16 51-21l0-30c0-5 3-8 8-8l94 0c5 0 8 3 8 8l0 30c18 5 35 12 51 21l22-22c3-3 8-3 11 0l67 67c3 3 3 8 0 11l-22 22c10 15 17 32 21 50l31 0c5 0 8 4 8 8l0 94c0 5-3 8-8 8z m-8-94l-29 0c-4 0-7-2-8-6-4-21-12-40-23-57-2-3-2-7 0-10l21-21-55-54-21 20c-2 2-6 3-9 1-18-11-37-19-58-24-4 0-6-3-6-7l0-29-79 0 0 29c0 4-3 7-7 7-20 5-40 13-57 24-3 1-7 1-10-1l-21-20-55 54 21 21c2 2 3 6 0 9-11 18-19 37-23 57-1 4-4 6-8 6l-29 0 0 79 29 0c4 0 7 2 8 6 4 21 12 40 23 57 2 3 2 7 0 10l-21 21 55 54 21-20c2-2 6-3 9-1 18 11 37 19 58 24 3 0 6 4 6 7l0 29 79 0 0-28c0-4 2-7 6-8 20-5 40-13 57-24 4-1 7-1 10 1l22 20 55-54-21-21c-2-2-3-6 0-9 11-18 19-37 23-57 1-4 4-6 8-6l29 0 0-79 0 0z"/>
<glyph glyph-name="ellipsis" unicode="&#105;" d="M256 500c-31 0-55-25-55-55 0-31 24-56 55-56 31 0 55 25 55 56 0 30-24 55-55 55z m0-189c-31 0-55-24-55-55 0-31 24-55 55-55 31 0 55 24 55 55 0 0 0 0 0 0 0 31-24 55-55 55z m0-188c-31 0-55-25-55-56 0-30 24-55 55-55 31 0 55 25 55 55 0 0 0 0 0 0 0 31-24 56-55 56z"/>
<glyph glyph-name="fields" unicode="&#106;" d="M60 504c-23 0-41-19-41-42l0-412c0-23 18-42 41-42l393 0c22 0 40 19 40 42l0 412c0 23-18 42-40 42z m0-27l393 0c7 0 13-7 13-15l0-412c0-8-6-15-13-15l-393 0c-8 0-14 7-14 15l0 412c0 8 6 15 14 15z m183-55c-7 0-13-7-13-14l0-83c0-8 6-14 13-14l158 0c7 0 13 6 13 14l0 83c0 7-6 14-13 14z m-145-28l0-28 79 0 0 28z m158 0l132 0 0-55-132 0z m-13-110c-7 0-13-7-13-14l0-83c0-8 6-14 13-14l158 0c7 0 13 6 13 14l0 83c0 7-6 14-13 14z m-145-28l0-28 79 0 0 28z m158 0l132 0 0-55-132 0z m-158-138l0-28 313 0 0 28z"/>
<glyph glyph-name="forms" unicode="&#107;" d="M331 374l-150 0c-15 0-27-12-27-27l0-49 1 0c0-1-1-3-1-4l0-65c0-2 1-3 1-4l-1 0 0-44c0-15 12-27 27-27l150 0c15 0 27 12 27 27l0 44-1 0c0 1 1 2 1 4l0 65c0 1-1 3-1 4l1 0 0 49c0 15-12 27-27 27z m5-27l0-42-69 0 0 47 64 0c3 0 5-2 5-5z m-69-64l69 0 0-43-69 0z m-22-43l-69 0 0 43 69 0z m-64 112l64 0 0-47-69 0 0 42c0 3 2 5 5 5z m-5-171l0 37 69 0 0-42-64 0c-3 0-5 2-5 5z m155-5l-64 0 0 42 69 0 0-37c0-3-2-5-5-5z m111 191c0 3-1 5-3 7l-123 128c-2 2-5 4-8 4l-184 0c-30 0-54-25-54-55l0-390c0-30 24-55 54-55l264 0c30 0 54 25 54 55z m-124 102l92-97-81 0c-6 0-11 5-11 11z m70-441l-264 0c-18 0-32 15-32 33l0 390c0 18 14 33 32 33l173 0 0-101c0-18 14-33 32-33l91 0 0-289c0-18-14-33-32-33z"/>
<glyph glyph-name="modules" unicode="&#110;" d="M495 133l0 88c0 0 0 1 0 2l0 1c0 0 0 1-1 2l0 0c0 1-1 1-1 2l-1 0c0 1-1 1-2 1l0 0-78 36 0 56c0 4-2 7-5 9l-58 33 0 64c0 1 0 2 0 3l0 1c0 0-1 1-1 1l0 1c-1 0-1 1-2 2l0 0c-1 0-1 1-2 1l0 0-79 37c-3 1-6 1-8 0l-79-37 0 0c-1 0-1 0-2-1l0 0c-1-1-1-1-2-2l0 0c0-1 0-2-1-2l0-1c0-1 0-2 0-2l0-65-59-35c-3-1-5-4-5-8l0-54 0 0c-2 1-5 1-8 0l-79-37 0 0c-1 0-1 0-2-1l0 0c-1-1-1-1-2-2l0 0c0-1-1-2-1-2l0-1c0-1 0-2 0-2l0-88c0-3 2-7 5-8l79-37c2-1 5-1 8 0l35 17 113-65c3-2 7-2 10 0l106 62 30-14c3-1 6-1 8 0l79 37c3 1 5 5 5 8z m-157 72l59-27 0-66-59 28z m69-10l-55 26 55 25 55-25z m-215 217l59-27 0-65-59 27z m79-27l59 27 0-65-59-27z m-10 68l55-26-55-25-55 25z m-156-207l55-25-55-26-55 26z m10-68l59 27 0-65-59-28z m-79 27l59-27 0-66-59 28z m226-145l-96 54 22 11c3 1 5 5 5 8l0 88c0 0 0 1 0 2l0 1c0 0-1 1-1 2l0 0c0 1-1 1-2 2l0 0c-1 1-1 1-2 1l0 0-59 27 0 58 44 26c0-4 2-7 6-9l78-36c2-1 5-1 8 0l79 36c3 2 5 5 5 9l43-24 1-55-69-32 0 0c-1 0-1 0-2-1l0 0c-1-1-1-1-2-2l0 0c0-1 0-2-1-2l0-1c0-1 0-2 0-2l0-88c0-3 2-7 5-8l27-13z m155 52l0 66 59 27 0-65z"/>
<glyph glyph-name="plus" unicode="&#114;" d="M478 281l-197 0 0 199c0 14-11 25-25 25-14 0-25-11-25-25l0-199-197 0c-13 0-25-11-25-25 0-14 12-25 25-25l197 0 0-199c0-14 11-25 25-25 14 0 25 11 25 25l0 199 197 0c13 0 25 11 25 25-1 14-12 25-25 25z"/>
<glyph glyph-name="profile" unicode="&#115;" d="M256 499c-68 0-125-57-125-125 0-68 57-125 125-125 68 0 125 57 125 125 0 69-57 125-125 125z m0-66c33 0 59-26 59-59 0-33-26-59-59-59-33 0-59 26-59 59 0 33 26 59 59 59z m0-197c-119 0-216-94-216-210l0-13 65 0 0 13c0 80 66 145 151 145 85 0 151-65 151-145l0-13 65 0 0 13c0 116-97 210-216 210z"/>
<glyph glyph-name="properties" unicode="&#116;" d="M89 504c-6 0-11-5-11-11l0-474c0-6 5-11 11-11l334 0c6 0 11 5 11 11l0 399c0 3-1 5-3 7l-74 76c-1 2-4 3-7 3l-261 0z m10-21l241 0 0-65c0-5 4-11 10-11l63 0 0-378-314 0z m262-16l37-38-37 0z m-225-81l0-44 42 0 0 44z m89-11c-6 0-11-5-11-11 0-6 5-11 11-11l141 0c6 0 10 5 10 11 0 6-4 11-10 11z m-89-76l0-43 42 0 0 43z m89-11c-6 0-11-4-11-10 0-6 5-11 11-11l141 0c6 0 10 5 10 11 0 6-4 10-10 10z m-89-75l0-43 42 0 0 43z m89-11c-6 0-11-5-11-11 0-6 5-11 11-11l141 0c6 0 10 5 10 11 0 6-4 11-10 11z m-89-75l0-44 42 0 0 44z m89-11c-6 0-11-5-11-11 0-6 5-11 11-11l141 0c6 0 10 5 10 11 0 6-4 11-10 11z"/>
<glyph glyph-name="question" unicode="&#117;" d="M256 505c-76 0-138-50-153-110-3-10 3-21 13-24 11-3 21 3 24 13 0 1 0 1 1 2 10 40 57 81 115 81 29 0 59-11 81-28 21-17 34-41 34-68 0-33-7-50-17-62-10-13-24-22-42-35-17-13-37-29-52-55-14-27-23-64-23-116 0-11 9-19 19-19 11 0 19 8 19 19 0 48 8 77 19 97 11 20 24 31 40 43 16 11 35 22 50 42 16 20 25 47 25 86 0 40-20 74-49 98-29 23-66 36-104 36z m0-441c-16 0-29-13-29-28 0-16 13-29 29-29 16 0 29 13 29 29 0 15-13 28-29 28z"/>
<glyph glyph-name="records" unicode="&#118;" d="M478 444l-444 0c-15 0-27-12-27-27l0-322c0-15 12-27 27-27l444 0c15 0 27 12 27 27l0 322c0 15-12 27-27 27z m-444-22l444 0c3 0 5-2 5-5l0-61-454 0 0 61c0 3 2 5 5 5z m144-244l0 67 156 0 0-67z m156-22l0-66-156 0 0 66z m0 178l0-67-156 0 0 67z m-178-67l-127 0 0 67 127 0z m0-22l0-67-127 0 0 67z m200 0l127 0 0-67-127 0z m0 22l0 67 127 0 0-67z m-327-172l0 61 127 0 0-66-122 0c-3 0-5 2-5 5z m449-5l-122 0 0 66 127 0 0-61c0-3-2-5-5-5z"/>
<glyph glyph-name="roles" unicode="&#120;" d="M502 47c-6 35-23 94-33 104-11 9-97 42-140 57 16 20 25 45 30 63 6 6 10 17 11 28 0 10-1 18-7 24 4 15 24 56 10 93-16 41-55 59-87 59-26 0-52-13-62-21-6 5-16 9-28 9-20 0-47-12-58-47-12-37 10-92 11-93-5-6-7-14-7-24 1-11 5-22 12-28 3-12 11-39 29-63-88-34-135-53-140-57-10-10-27-76-33-104-1-2 0-5 1-7 2-2 4-3 7-3l476 0c3 0 5 1 7 3 1 2 2 4 1 7z m-333 230c0 2-1 4-3 5-3 2-7 10-7 18 0 4 0 10 4 14 5 4 4 8 1 17-5 16-20 57-9 80 12 25 29 32 42 32 18 1 25-13 27-13 2 0 32 26 61 26 23 0 59-14 71-51 10-27-1-52-7-72-2-9-6-14-2-19 4-4 4-8 4-12 0-10-2-18-5-20-1-1-3-3-3-5-4-17-27-91-87-91-61 0-84 82-87 91z m87-29c-7 0-13 6-13 13l0 50c0 1 0 3 1 5 2 5 5 7 10 10 12 6 32 16 32 41 0 11-5 30-33 30-28 0-33-28-34-31-1-6-7-12-15-10-7 2-11 9-10 16 1 5 13 51 61 51 42 0 57-30 57-56 0-40-31-57-44-63l0-43c0-7-5-13-12-13z m0-11c-7 0-12-6-12-13 0-7 5-12 12-12 7 0 13 5 13 12 0 7-6 13-13 13z"/>
<glyph glyph-name="search" unicode="&#121;" d="M495 32l-196 196c57 63 54 161-7 222-64 64-166 64-230 0-64-64-64-167 0-230 32-32 74-48 114-48 39 0 77 14 108 41l196-196c2-2 5-3 7-3 2 0 5 1 7 3 5 5 5 11 1 15z m-418 203c-56 55-56 145 0 201 28 28 64 42 100 42 37 0 73-14 101-42 56-56 56-146 0-201-56-56-145-56-201 0z"/>
<glyph glyph-name="settings" unicode="&#122;" d="M223 503c-18 0-33-15-33-33l0-28c-24-8-45-22-64-39l-25 14c-16 9-36 3-45-13l-32-57c-9-16-3-36 13-45l25-14c-2-10-4-21-4-32 0-11 2-22 4-32l-25-14c-16-9-22-29-13-45l32-58c9-15 29-21 45-12l25 13c19-16 40-29 64-38l0-28c0-18 15-33 33-33l66 0c18 0 33 15 33 33l0 28c24 9 45 22 64 38l25-13c16-9 36-3 45 12l32 58c9 16 3 36-13 45l-25 14c2 10 4 21 4 32 0 11-2 22-4 32l25 14c16 9 22 29 13 45l-32 57c-9 16-29 22-45 13l-25-14c-19 17-40 31-64 39l0 28c0 18-15 33-33 33z m0-22l66 0c6 0 11-5 11-11l0-36c0-4 3-9 8-10 26-8 50-23 70-41 3-4 8-4 13-2l31 17c5 3 12 1 15-4l32-58c3-5 1-12-4-15l-32-17c-4-2-6-7-5-12 2-11 4-24 4-36 0-12-2-24-4-36-1-5 1-10 5-12l32-17c5-3 7-10 4-15l-32-58c-3-5-10-7-15-4l-31 17c-5 2-10 2-13-1-20-19-44-34-70-42-5-1-8-6-8-10l0-36c0-6-5-11-11-11l-66 0c-6 0-11 5-11 11l0 36c0 5-3 9-8 10-26 8-50 23-70 42-3 3-8 3-13 1l-31-17c-5-3-12-1-15 4l-32 58c-3 5-1 12 4 15l32 17c4 2 6 7 5 12-2 12-4 24-4 36 0 12 2 25 4 36 1 5-1 10-5 12l-32 17c-5 3-7 10-4 15l32 58c3 5 10 7 15 4l31-17c5-2 10-2 13 2 20 18 44 33 70 41 5 1 8 6 8 10l0 36c0 6 5 11 11 11z m33-110c-64 0-115-51-115-115 0-64 51-115 115-115 64 0 115 51 115 115 0 64-51 115-115 115z m0-22c52 0 93-41 93-93 0-52-41-93-93-93-52 0-93 41-93 93 0 52 41 93 93 93z"/>
<glyph glyph-name="users" unicode="&#65;" d="M339 272c30 23 50 59 50 100 0 70-57 126-127 126-71 0-128-56-128-126 0-39 18-74 46-97-98-31-169-123-169-231 0-17 13-30 30-30 18 0 31 13 31 30 0 100 83 182 184 182 101 0 184-82 184-182 0-17 13-30 31-30 17 0 30 13 30 30 0 105-67 195-162 228z m-77 165c36 0 66-29 66-65 0-36-30-66-66-66-37 0-67 29-67 66 1 36 30 65 67 65z"/>
<glyph glyph-name="lock" unicode="&#33;" d="M373 113l-110 110c16 46 4 96-30 131-24 24-56 36-90 36 0 0 0 0 0 0-34 0-66-13-90-37-49-49-49-129 1-179 24-24 55-36 89-36 0 0 0 0 1 0 14 0 28 2 41 7l17-17c4-4 9-6 14-6l20 0 0-16c0-6 2-12 6-17 5-4 11-6 17-6l16 0 0-20c0-5 3-10 6-14l14-13c3-4 8-6 13-6l53 0c9 0 17 8 17 17l0 53c1 5-1 10-5 13z m-62-59l-11 10 0 27c0 4-1 8-4 11-3 3-7 4-11 4l-25 0 0 25c0 8-6 16-15 16l-27 0-21 21c-3 3-9 4-13 2-13-5-26-8-40-8-27 0-53 10-72 29-40 41-41 105-1 145 19 20 45 30 73 30 27 0 52-10 71-29 30-30 39-74 22-112-1-5-1-10 3-14l114-113 0-44z m-191 272c-10 0-20-4-27-11-15-16-15-40 0-56 7-7 17-11 27-11 10 0 20 4 28 11 7 8 11 18 11 28 0 10-4 20-11 27-8 8-17 12-28 12z m10-49c-2-3-6-4-10-4-4 0-7 1-10 4-6 6-6 15 0 21 3 2 6 4 10 4 4 0 8-2 10-4 6-6 6-16 0-21z m345 107l-1 0c-2 0-5 1-8 1l0 28c0 38-31 69-69 69l-2 0c-38 0-69-31-69-69l0-28c-2 0-4-1-7-1l-1 0c-12-2-20-13-20-24l0-87c0-12 8-22 20-24l7-2c24-4 48-7 71-7 24 0 48 3 71 7l8 2c12 2 20 12 20 24l0 87c0 12-8 22-20 24z m-124 30c0 24 20 44 44 44l2 0c25 0 45-20 45-44l0-25c-31 4-61 4-91 0l0 25z m120-141c0 0 0 0 0 0l-9-2c-43-8-89-8-133 0l-8 2c0 0 0 0 0 0l0 87c0 0 0 0 0 0l1 0c24 4 49 7 73 7 25 0 49-3 73-7l1 0c0 0 1 0 1 0l0-87z m-65 44c4 3 5 8 5 13-1 7-6 12-13 13-5 0-9-1-12-4-3-3-5-7-5-11 0-5 2-8 5-11l-7-20c-1-2 1-4 3-5 5-2 9-3 14-3 5 0 10 1 15 3 2 1 3 3 2 5z"/>
<glyph glyph-name="piechart" unicode="&#34;" d="M14 517l-3 0c0-2-1-3-3-3-3 0-4 2-4 5 0 4 1 6 4 6 2 0 3-1 3-3l3 0c0 3-3 5-6 5-4 0-7-3-7-8 0-4 3-7 7-7 3 0 6 2 6 5z m-6 3l0 3c-1 0-1 0-1 0-1 0-2-1-3-2l0 2-3 0 0-11 3 0 0 6c0 2 1 2 3 2 0 0 0 0 1 0z m3-3c0 4-2 6-5 6-4 0-6-2-6-6 0-3 2-5 6-5 2 0 4 1 5 3l-3 0c0-1-1-1-2-1-2 0-3 1-3 3l8 0z m-3 2l-5 0c1 1 1 2 3 2 1 0 2-1 2-2z m3-7l0 0c-1 1-1 1-1 2l0 6c0 2-1 3-4 3-3 0-5-1-5-4l3 0c0 2 0 2 2 2 1 0 1 0 1-1 0-1-1-1-2-1l-1-1c-2 0-3-1-3-3 0-2 1-3 3-3 1 0 2 0 3 1 0 0 0-1 1-1l3 0z m-4 5c0-2-1-3-2-3-1 0-2 1-2 1 0 1 1 1 2 2l1 0c1 0 1 0 1 0z m-1-5l0 2c0 0 0 0 0 0-1 0-1 0-1 1l0 6 1 0 0 2-1 0 0 3-3 0 0-3-2 0 0-2 2 0 0-7c0-1 1-2 3-2 0 0 1 0 1 0z m5 0l0 15-3 0 0-5c0 1-1 1-3 1-2 0-4-2-4-5 0-4 1-6 4-6 2 0 3 0 3 1l0-1 3 0z m-3 5c0-2-1-3-2-3-2 0-3 2-3 4 0 2 1 3 3 3 1 0 2-1 2-4z m4 0c0 4-2 6-5 6-1 0-2 0-3-1l0 5-3 0 0-15 3 0 0 1c1-1 2-1 3-1 3 0 5 2 5 5z m-3 1c0-2-1-4-2-4-2 0-3 1-3 4 0 2 1 3 3 3 1 0 2-1 2-3z m2 5l-3 0-2-8-3 8-3 0 4-11 0-1c0-1 0-1-1-1-1 0-1 0-1 0l0-2c0 0 0 0 1 0 2 0 3 0 3 2z m4-11l0 8-6 0 0-3 3 0c0-1-2-3-4-3-2 0-4 2-4 6 0 3 2 5 4 5 2 0 3-1 4-3l3 0c-1 3-3 5-7 5-4 0-7-3-7-7 0-5 3-8 7-8 2 0 3 0 4 2l1-2 2 0z m-4 0l0 11-3 0 0-2c0 2-1 2-3 2-2 0-4-2-4-6 0-3 2-5 4-5 2 0 2 0 3 1l0-1c0-2-1-3-2-3-1 0-2 1-2 2l-3 0c0-2 2-3 5-3 3 0 5 1 5 4z m-3 5c0-2-1-3-2-3-1 0-2 1-2 3 0 3 1 4 2 4 1 0 2-1 2-4z m4 0c0 4-2 6-6 6-3 0-5-2-5-5 0-4 2-6 5-6 4 0 6 2 6 5z m-3 1c0-3-1-4-3-4-1 0-2 1-2 4 0 2 1 3 2 3 2 0 3-1 3-3z m2-3l0 0c0 2-1 3-3 3l-3 1c-1 0-1 1-1 1 0 1 1 1 2 1 1 0 2 0 2-1l2 0c0 2-1 3-4 3-3 0-5-1-5-3 0-2 0-3 2-3l4-1c1 0 1-1 1-1 0-1-1-1-2-1-2 0-2 0-3 2l-2 0c0-3 1-4 5-4 3 0 5 1 5 3z m0-3l0 7c0 3-1 4-4 4-1 0-2 0-3-1l0 1-3 0 0-11 3 0 0 7c0 1 1 2 2 2 2 0 2-1 2-2l0-7 3 0z m-5 9l0 2-1 0 0 1c0 1 0 1 0 1 1 0 1 0 1 0l0 2c0 0-1 0-1 0-2 0-3-1-3-3l0-1-2 0 0-2 2 0 0-9 3 0 0 9 1 0z m11-9l0 8c0 2-1 3-4 3-1 0-2 0-3-1 0 1-2 1-3 1-1 0-2 0-3-1l0 1-3 0 0-11 3 0 0 7c0 1 1 2 2 2 1 0 2-1 2-2l0-7 2 0 0 7c0 1 1 2 2 2 1 0 2-1 2-2l0-7 3 0z m-6 0l0 7c0 3-1 4-4 4-1 0-2 0-3-1l0 5-3 0 0-15 3 0 0 7c0 1 1 2 2 2 1 0 2-1 2-2l0-7 3 0z m3 0l0 15-4 0 0-10-5 10-4 0 0-15 3 0 0 10 6-10 4 0z m-3 0l0 11-3 0 0-7c0-1-1-2-2-2-1 0-2 1-2 2l0 7-3 0 0-7c0-3 2-4 4-4 1 0 2 0 3 1l0-1 3 0z m2 10c0 3-2 5-5 5l-6 0 0-15 3 0 0 5 3 0c3 0 5 2 5 5z m-3 0c0-1-1-2-2-2l-3 0 0 4 3 0c1 0 2 0 2-2z m-6-12l0 13-3 0 0-12c0-1 0-1 0-1-1 0-1 0-1 0l0-2c1 0 1 0 2 0 2 0 2 0 2 2z m0 14l0 3-3 0 0-3 3 0z m7-8l-3 0c0-1-1-2-2-2-2 0-2 1-2 3 0 3 0 4 2 4 1 0 2-1 2-2l3 0c-1 3-2 4-5 4-3 0-5-2-5-6 0-3 2-5 5-5 3 0 4 2 5 4z m280-14c-5 0-10-2-14-6-4-3-6-8-6-14l0-145c0-8 7-15 15-15l145 0c6 0 11 2 14 6 4 4 6 9 6 15-6 85-74 154-160 159z m0-159l0 138c75-5 134-64 139-138z m119-39l-113 0c-6 0-11-4-13-9-2-6-1-12 3-16l85-81c4-4 9-6 14-5l2 0c6 0 11 3 14 8 16 24 26 52 28 82 0 5-2 10-5 14-4 4-9 7-15 7z m-24-91l-73 70 96 0c-1-25-10-49-23-70z m-138 81l0 149c0 13-9 22-22 23l-1 0c-93-7-165-85-164-179 1-93 75-169 168-174 3-16 6-25 9-25 46 7 87 31 115 67 5 4 8 10 8 16 0 6-2 12-7 16z m92-123c-28-25-65-38-102-38-3 0-5 0-8 0-82 5-147 72-148 155-1 82 62 151 144 157l168 0-168-156c0-2 1-5 3-7l109-109c1-34 1-80 1-127 0 60 0 112 1 125z"/>
<glyph glyph-name="address" unicode="&#66;" d="M203 229l146 0c9 0 17 4 23 12 5 8 6 19 2 30l-1 3c-7 16-41 42-54 52 5 9 8 21 8 33 0 54-32 62-51 62-19 0-51-8-51-62 0-12 3-23 8-33-13-9-47-35-54-51l-2-5c-3-10-2-21 3-29 6-8 14-12 23-12z m73 176c15 0 35-5 35-46 0-25-15-45-35-45-19 0-35 21-35 45 0 41 20 46 35 46z m-84-142l2 5c4 10 31 32 49 45 9-9 20-16 33-16 13 0 25 6 34 16 17-13 44-35 48-46l2-3c2-5 1-10-1-14-3-3-6-5-10-5l-146 0c-4 0-7 2-10 5-2 4-3 9-1 13z m-112-87c-23 0-41-19-41-42 0-23 18-42 41-42l3 0 0-13c0-37 29-68 64-68l226 0c34 0 62 29 64 64l8 0c15 0 28 12 28 26l0 48c0 15-13 26-28 26l-7 0 0 23 7 0c15 0 28 12 28 26l0 48c0 14-13 26-28 26l-7 0 0 23 7 0c15 0 28 11 28 26l0 48c0 14-13 26-28 26l-7 0 0 12c0 37-30 68-65 68l-226 0c-35 0-64-31-64-68l0-21-3 0c-23 0-41-18-41-42 0-23 18-41 41-41l3 0 0-36-3 0c-23 0-41-18-41-41 0-24 18-42 41-42l3 0 0-34-3 0z m-25-42c0 16 12 25 24 25l10 0c1 0 1 0 1 0l11 0c12 0 25-9 25-25 0-13-9-25-25-25l-9 0c-1 0-1 0-2 0l-10 0c-16 0-25 13-25 25z m390 25c6 0 12-4 12-10l0-48c0-5-6-9-12-9l-7 0 0 67 7 0z m0 123c6 0 12-5 12-10l0-48c0-5-6-10-12-10l-7 0 0 68z m0 123c6 0 12-5 12-10l0-48c0-6-6-10-12-10l-7 0 0 68z m-347 28c0 28 22 51 49 51l226 0c27 0 49-23 49-51l0-354c0-28-22-51-49-51l-226 0c-27 0-49 23-49 51l0 13 3 0c23 0 41 18 41 42 0 23-18 41-41 41l-3 0 0 35 3 0c23 0 41 19 41 42 0 23-18 42-41 42l-3 0 0 35 3 0c23 0 41 18 41 41 0 24-18 42-41 42l-3 0z m-43-63c0 16 12 26 24 26l22 0c12 0 25-10 25-26 0-12-9-25-25-25l-21 0c-16 0-25 13-25 25z m0-118c0 16 12 25 24 25l11 0c1 0 1 0 2 0l9 0c12 0 25-9 25-25 0-12-9-25-25-25l-11 0c0 0 0 0-1-1l-9 0c-16 0-25 13-25 26z m301-59l-159 0c-4 0-7-4-7-8 0-5 3-9 7-9l159 0c4 0 8 4 8 9 0 4-4 8-8 8z m0-45l-159 0c-4 0-7-4-7-8 0-5 3-9 7-9l159 0c4 0 8 4 8 9 0 4-4 8-8 8z"/>
<glyph glyph-name="block1" unicode="&#98;" d="M13 260l0 204 486 0 0-204z m0-217l0 204 486 0 0-204-486 0z"/>
<glyph glyph-name="block2" unicode="&#67;" d="M250 27l-205 0 0 458 205 0 0-458z m217 0l-205 0 0 458 205 0z"/>
<glyph glyph-name="block3" unicode="&#73;" d="M250 27l-205 0 0 458 205 0 0-458z m217 0l-205 0 0 223 205 0z m0 235l-205 0 0 223 205 0z"/>
<glyph glyph-name="block4" unicode="&#75;" d="M258 296l-19 0 0 79c0 2-2 3-4 3 0 0 0 0 0 0l-29 0c-2 0-4-1-4-3l0-79-24 0 0 45c0 2-2 4-5 4l-28 0c0 0 0 0 0 0-3 0-5-2-5-4l0-45-23 0 0 64c0 2-2 3-5 3l-28 0c0 0-1 0-1 0-2 0-4-1-4-3l0-64-14 0 0 73 47 22 44-25c2-1 5-1 6 0l76 49c1 1 2 2 1 4-1 1-3 2-4 2-2 0-3 0-3 0l-73-47-44 24c-2 1-4 1-5 0l-45-20 0 49c0 2-3 4-5 4-3 0-5-2-4-4l0-134c0-2 2-4 4-4l198 0c3 0 5 2 5 4 0 2-2 3-5 3z m-151 0l-19 0 0 60 19 0 0-60z m62 0l-19 0 0 41 19 0 0-41z m61 0l-19 0 0 75 19 0z m233 71c-2 30-26 54-57 56-3 0-7-3-7-6 0 0 0-1 0-1l0-51c0-3 3-5 6-5l51 0c4 0 7 3 7 6 0 1 0 1 0 1z m-57 0l0 49c27-2 48-23 49-49l-49 0z m43-14c0 0 0 0-1 0l0 0-40 0c-2 0-5-2-5-5 0-1 1-3 2-4l30-28c1-2 3-2 5-2l1 0c2 0 3 1 5 3 5 8 9 18 9 29 1 4-2 7-6 7z m-9-32l-26 25 34 0c0-9-3-18-8-25z m-11-9l-38 37 0 53c0 5-3 8-8 8l0 0c-35-2-60-32-58-67 3-31 28-56 59-57 1 0 2 0 4 0 15 0 29 5 40 15 2 1 3 3 3 5 0 2-1 4-2 6z m-5-6c-10-9-23-13-36-13-1 0-2 0-3 0-31 1-54 27-53 58 2 28 24 50 51 52 1 0 1 0 1-1l0-54c0-1 0-2 1-3l39-38c0 0 0 0 0-1 0 0 0 0 0 0z m-374-61l0-153 420 0 0 153z m139-150l-135 0 0 35 135 0 0-35z m0 37l-135 0 0 36 135 0 0-36z m0 38l-135 0 0 35 135 0 0-35z m138-75l-134 0 0 35 134 0z m0 37l-134 0 0 36 134 0z m0 38l-134 0 0 35 134 0z m139-75l-134 0 0 35 134 0z m0 37l-134 0 0 36 134 0z m0 38l-134 0 0 35 134 0z"/>
<glyph glyph-name="block5" unicode="&#76;" d="M59 369l-35 0 0 52 35 0z m-20 15l5 0 0 23-5 0z m178-15l-154 0 0 52 154 0z m-139 15l124 0 0 23-124 0z m-19-89l-35 0 0 52 35 0z m-20 15l5 0 0 22-5 0z m178-15l-154 0 0 52 154 0z m-139 15l124 0 0 22-124 0z m-19-89l-35 0 0 52 35 0z m-20 15l5 0 0 22-5 0z m178-15l-154 0 0 52 154 0z m-139 15l124 0 0 22-124 0z m-19-89l-35 0 0 52 35 0z m-20 15l5 0 0 22-5 0z m178-15l-154 0 0 52 154 0z m-139 15l124 0 0 22-124 0z m-19-89l-35 0 0 52 35 0z m-20 15l5 0 0 22-5 0z m178-15l-154 0 0 52 154 0z m-139 15l124 0 0 22-124 0z m377 267l-52 0c-4 0-8 4-8 9l0 52c0 6 5 10 10 10l0 0c32-2 58-28 60-60l0-1c0-5-4-10-10-10z m-50 65c-3 0-4-2-5-4l0-52c0-2 2-3 3-3l52 0c3 0 5 2 5 4-2 30-26 53-55 55 0 0 0 0 0 0z m34-111c-3 0-5 1-7 3l-30 29c-2 1-3 3-3 5 0 5 4 8 8 8l41 0c6 0 10-5 10-10-1-11-5-22-11-31-1-2-4-4-7-4z m-32 40c-1 0-2-1-2-3 0 0 0-1 1-1l30-29c1-1 2-2 3-2l0-2 0 2 1 0c1 0 2 1 3 2 5 9 8 18 9 28 0 2-1 4-4 5z m-21-69c0 0 0 0 0 0l0 0c-1 0-2 0-4 0-33 2-60 28-62 61-3 37 24 69 61 72l1 0c6 0 10-5 10-11l0-53 38-37c2-2 3-5 3-8 0-3-2-6-4-8-12-10-27-16-43-16z m-4 127l-1 0c-33-3-58-32-56-65 3-31 27-55 58-56 1 0 2 0 3 0l0 0c14 0 28 5 39 14 2 1 2 3 2 4 0 1 0 3-1 4l-39 39 0 55c0 3-2 5-5 5z m-112-321l0 167 222 0 0-167-222 0z m0 0l0 167 222 0 0-167-222 0z"/>
<glyph glyph-name="block6" unicode="&#83;" d="M258 96l-19 0 0 79c0 2-2 3-4 3 0 0 0 0 0 0l-29 0c-2 0-4-1-4-3l0-79-24 0 0 45c0 2-2 4-5 4l-28 0c0 0 0 0 0 0-3 0-5-2-5-4l0-45-23 0 0 64c0 2-2 4-5 4l-28 0c0 0-1 0-1 0-2-1-4-2-4-4l0-64-14 0 0 73 47 22 44-25c2-1 5-1 6 0l76 49c1 1 2 3 1 4-1 1-3 2-4 2-2 0-3 0-3 0l-73-47-44 24c-2 1-4 1-5 1l-45-21 0 49c0 2-3 4-5 4-3 0-5-2-5-4l0-134c0-2 3-4 5-4l198 0c3 0 5 2 5 4 0 2-2 3-5 3z m-151 0l-19 0 0 60 19 0 0-60z m62 0l-19 0 0 41 19 0 0-41z m61 0l-19 0 0 75 19 0z m-180 330l0-152 420 0 0 152z m139-150l-135 0 0 35 135 0 0-35z m0 38l-135 0 0 35 135 0 0-35z m0 37l-135 0 0 35 135 0 0-35z m138-75l-134 0 0 35 134 0z m0 38l-134 0 0 35 134 0z m0 37l-134 0 0 35 134 0z m139-75l-134 0 0 35 134 0z m0 38l-134 0 0 35 134 0z m0 37l-134 0 0 35 134 0z m6-266l-186 0 0 164 186 0z m-176 11l165 0 0 142-165 0z"/>
<glyph glyph-name="block7" unicode="&#88;" d="M139 318l-100 0 0 101 100 0z m318-227l-184 0c-3 0-5 3-5 7l0 314c0 3 2 6 4 7l1 0c0 0 0 0 1 0l183 0c3 0 5-3 5-7l0-314c0-4-2-7-5-7z m-184 322c0 0 0 0 0-1l0-314c0-1 0-1 0-1l184 0c0 0 0 0 0 1l0 314c0 1 0 1 0 1z m65-94l-43 0c-3 0-5 3-5 7l0 45c0 3 1 6 4 6l1 0c0 0 0 0 0 0l43 0c3 0 5-2 5-6l0-45c0-4-2-7-5-7z m-43 53c0 0 0-1 0-1l0-45c0-1 0-1 0-1l43 0c0 0 0 0 0 1l0 45c0 0 0 1 0 1z m70-30c-3 0-5 2-5 6-1 3 1 7 4 7l1 0c0 0 0 0 0 0l70 0c3 0 6-3 6-7 0-3-3-6-6-6z m70 7l-70 0c0 0 0 0 0-1 0 0 0 0 0 0l70 0c0 0 1 0 1 0 0 1-1 1-1 1z m-97-123l-43 0c-3 0-5 3-5 6l0 45c0 3 1 6 4 7l1 0c0 0 0 0 0 0l43 0c3 0 5-3 5-7l0-45c0-3-2-6-5-6z m-43 52c0 0 0 0 0-1l0-45c0 0 0 0 0 0l43 0c0 0 0 0 0 0l0 45c0 1 0 1 0 1z m70-30c-3 0-5 3-5 6-1 4 1 7 4 8l1 0c0 0 0 0 0 0l70 0c3 0 6-4 6-7 0-4-3-7-6-7z m70 8l-70 0c0 0 0-1 0-1 0-1 0-1 0-1l70 0c0 0 1 0 1 1 0 0-1 1-1 1z m-113-105c-1 0-2 1-3 1l-8 8c-3 2-3 6-2 9 2 3 6 4 8 2l4-4 26 47c1 2 3 3 4 3 2 0 3-1 4-2 2-2 2-6 1-9l-30-52c-1-2-2-3-4-3z m-8 15c-1-1 0-1 0-2l8-7 30 52c0 1 0 2 0 2l-30-53z m24-34l-43 0c-3 0-5 3-5 7l0 45c0 3 2 6 4 6l22 0c3 0 6-3 6-6 0-4-3-7-5-7l-17 0 0-31 33 0 0 8c0 4 2 7 5 7 3 0 5-3 5-7l0-15c0-4-2-7-5-7z m-22 53l-21 0c0 0 0-1 0-1l0-45c0-1 0-1 0-1l43 0c0 0 0 1 0 1l0 15c0 1 0 1 0 1 0 0 0 0 0-1l0-14-43 0 0 43 21 0c0 0 1 0 1 1 0 0-1 1-1 1z m49-30c-3 0-5 2-5 6-1 4 1 7 4 7l1 0c0 0 0 0 0 0l70 0c3 0 6-3 6-7 0-3-3-6-6-6z m70 7l-70 0c0 0 0 0 0-1 0 0 0 0 0 0l70 0c0 0 1 0 1 0 0 1-1 1-1 1z m-183 156l-100 0 0 101 100 0z m-113-112l-100 0 0 100 100 0z m0-113l-100 0 0 100 100 0z m113 113l-100 0 0 100 100 0z m0-113l-100 0 0 100 100 0z"/>
<glyph glyph-name="block8" unicode="&#51;" d="M288 370l-61 0c-2 0-4 2-4 3 0 8-6 15-14 15l-158 0c-8 0-15-7-15-15l0-241c0-8 7-15 15-15l158 0c3 0 5 1 8 2 3 0 6 2 6 4 0 1 0 1 0 1l0 75 34 0c8 0 15 7 15 14l0 32c0 4-2 7-4 9 2 3 4 6 4 9l0 32c0 2-1 3-1 4l17 0c8 0 15 6 15 14l0 43c0 8-7 14-15 14z m-27-157c0-2-2-3-4-3l-34 0 0 39 34 0c2 0 4-2 4-4z m0 50c0-2-2-3-4-3l-34 0 0 28c0 3 1 11 4 11l28 0c1 0 1-1 2-1 2 0 4-1 4-3z m31 50c0-2-2-4-4-4l-61 0c-4 0-15-2-15-21l0-159c-1-1-2-1-3-1l-158 0c-2 0-4 1-4 3l0 242c0 2 2 4 4 4l158 0c2 0 3-2 3-4 0-7 7-14 15-14l61 0c2 0 4-1 4-3l0-43z m-110 18l-97 0c-3 0-6-2-6-5 0-3 3-6 6-6l97 0c3 0 6 3 6 6 0 3-3 5-6 5z m0-35l-97 0c-3 0-6-3-6-6 0-3 3-5 6-5l97 0c3 0 6 2 6 5 0 3-3 6-6 6z m0-36l-97 0c-3 0-6-3-6-6 0-3 3-5 6-5l97 0c3 0 6 2 6 5 0 3-3 6-6 6z m0-36l-97 0c-3 0-6-2-6-5 0-3 3-6 6-6l97 0c3 0 6 3 6 6 0 3-3 5-6 5z m-36-36l-61 0c-3 0-6-2-6-5 0-3 3-5 6-5l61 0c3 0 5 2 5 5 0 3-2 5-5 5z m331-71l-142 0 0 276 142 0z m-131 11l120 0 0 254-120 0z"/>
<glyph glyph-name="block9" unicode="&#40;" d="M13 75l0 253 486 0 0-253z m42 333l-42 0 0 6 42 0 0-6z m-41 3l40 0z m83-42c-24 0-42 19-42 42 0 24 18 43 42 43 23 0 41-19 41-43 0-23-18-42-41-42z m0 76c-19 0-34-15-34-34 0-18 15-33 34-33 18 0 33 15 33 33 0 19-15 34-33 34z m159-76c-23 0-42 19-42 42 0 24 19 43 42 43 23 0 42-19 42-43 0-23-19-42-42-42z m0 76c-19 0-34-15-34-34 0-18 15-33 34-33 18 0 33 15 33 33 0 19-15 34-33 34z m-42-37l-76 0 0 6 76 0 0-6z m-74 3l73 0z m275-42c-23 0-41 19-41 42 0 23 18 42 41 42 24 0 42-19 42-42 0-23-18-42-42-42z m0 76c-18 0-33-15-33-34 0-19 15-34 33-34 19 0 34 15 34 34 0 19-15 34-34 34z m-41-37l-76 0 0 6 76 0z m-75 3l73 0z m200-3l-42 0 0 6 42 0z m-41 3l40 0z"/>
<glyph glyph-name="action-items" unicode="&#43;" d="M230 343l-35 32-37-36 72-68 124 119-37 36z m0-178l-35 33-37-36 72-69 124 120-37 36z m185 345l-318 0c-29 0-53-23-53-51l0-406c0-28 24-51 53-51l318 0c29 0 53 23 53 51l0 406c0 28-24 51-53 51z m-318-457l0 406 318 0 0-406z"/>
<glyph glyph-name="dashboard5" unicode="&#44;" d="M256 325l0-115 118 0c0 64-53 115-118 115z m104 185l-269 0c-26 0-47-21-47-46l0-416c0-25 21-46 47-46l330 0c26 0 47 21 47 46l0 356z m-269-462l0 416 236 0 0-93 94 0 0-323z m118 248c-41-15-71-53-71-98 0-57 48-103 106-103 46 0 85 29 100 69l-135 0 0 132z"/>
<glyph glyph-name="grid4" unicode="&#85;" d="M147 485l0-100c0-11-9-20-20-20l-100 0c-11 0-19 9-19 20l0 100c0 11 8 19 19 19l100 0c11 0 20-8 20-19z m159 19l-100 0c-11 0-20-8-20-19l0-100c0-11 9-20 20-20l100 0c11 0 20 9 20 20l0 100c0 11-9 19-20 19z m179 0l-100 0c-11 0-20-8-20-19l0-100c0-11 9-20 20-20l100 0c11 0 19 9 19 20l0 100c0 11-8 19-19 19z m-358-178l-100 0c-11 0-19-9-19-20l0-100c0-11 8-20 19-20l100 0c11 0 20 9 20 20l0 100c0 11-9 20-20 20z m179 0l-100 0c-11 0-20-9-20-20l0-100c0-11 9-20 20-20l100 0c11 0 20 9 20 20l0 100c0 11-9 20-20 20z m179 0l-100 0c-11 0-20-9-20-20l0-100c0-11 9-20 20-20l100 0c11 0 19 9 19 20l0 100c0 11-8 20-19 20z m-358-179l-100 0c-11 0-19-9-19-20l0-100c0-11 8-19 19-19l100 0c11 0 20 8 20 19l0 100c0 11-9 20-20 20z m179 0l-100 0c-11 0-20-9-20-20l0-100c0-11 9-19 20-19l100 0c11 0 20 8 20 19l0 100c0 11-9 20-20 20z m179 0l-100 0c-11 0-20-9-20-20l0-100c0-11 9-19 20-19l100 0c11 0 19 8 19 19l0 100c0 11-8 20-19 20z"/>
<glyph glyph-name="grid3" unicode="&#86;" d="M146 265l191 0 0-12-191 0z m0-23l168 0 0-12-168 0z m0-24l179 0 0-11-179 0z m0-23l133 0 0-11-133 0z m243-52l69 0 0-11-69 0z m0-17l34 0 0-11-34 0z m98-17l0 323c0 10-8 17-17 17l-428 0c-9 0-17-7-17-17l0-323-17 0 0-29c0-10 7-17 17-17l462 0c10 0 17 7 17 17l0 29z m-445 329l428 0c3 0 5-3 5-6l0-17-438 0 0 17c0 3 2 6 5 6z m-5-35l438 0 0-294-438 0z m456-323c0-3-3-6-6-6l-462 0c-3 0-6 3-6 6l0 17 180 0c3-7 9-11 17-11l80 0c8 0 14 4 17 11l180 0 0-17z m-225 346c0-3-3-5-6-5-3 0-6 2-6 5 0 4 3 6 6 6 3 0 6-2 6-6z m-214-242l75 0 0 81-75 0z m11 69l52 0 0-58-52 0z m393 41l0 86-404 0 0-86z m-393 73l160-30-160-31z m382-61l-160 31 160 30z m-56-1l-270 0 135 26z m-135 38l-135 26 270 0z m133-188l69 0 0 110-69 0z m58 28l-17 27 17 27z m-4-17l-39 0 20 33z m-20 55l-19 32 39 0z m-6-11l-17-27 0 54z"/>
<glyph glyph-name="grid5" unicode="&#90;" d="M447 7l-382 0c-32 0-58 26-58 58l0 382c0 32 26 58 58 58l382 0c32 0 58-26 58-58l0-382c0-32-26-58-58-58z m-382 475c-19 0-35-16-35-35l0-382c0-19 16-35 35-35l382 0c19 0 35 16 35 35l0 382c0 19-16 35-35 35z m426-76l-470 0c-6 0-11 4-11 9 0 4 5 8 11 8l470 0c6 0 11-4 11-8 0-5-5-9-11-9z m-364 35l-71 0c-6 0-11 5-11 12 0 6 5 11 11 11l71 0c6 0 11-5 11-11 0-7-5-12-11-12z m201-14c-14 0-26 11-26 26 0 14 12 25 26 25 14 0 26-11 26-25 0-15-12-26-26-26z m84 26c0-15-11-26-25-26-15 0-26 11-26 26 0 14 11 25 26 25 14 0 25-11 25-25z m59 0c0-15-11-26-26-26-14 0-25 11-25 26 0 14 11 25 25 25 15 0 26-11 26-25z m-291-326l-33 0c-4 0-8 3-8 8l0 159c0 5 4 8 8 8l33 0c5 0 8-3 8-8l0-159c0-5-3-8-8-8z m-25 16l17 0 0 143-17 0z m115-16l-32 0c-5 0-8 3-8 8l0 159c0 5 3 8 8 8l32 0c5 0 8-3 8-8l0-159c0-5-3-8-8-8z m-24 16l16 0 0 143-16 0z m114-16l-32 0c-5 0-8 3-8 8l0 159c0 5 3 8 8 8l32 0c5 0 8-3 8-8l0-159c0-5-3-8-8-8z m-24 16l16 0 0 143-16 0z"/>
<glyph glyph-name="grid6" unicode="&#49;" d="M435 504l-358 0c-36 0-64-28-64-63l0-369c0-36 28-64 64-64l358 0c36 0 64 28 64 64l0 368c0 36-28 64-64 64z m29-433c0-16-13-29-29-29l-358 0c-16 0-29 13-29 29l0 369c0 17 13 30 29 30l358 0c16 0 29-13 29-30l0-369z m-40 376l-336 0c-9 0-17-8-17-18l0-143c0-10 8-18 17-18l336 0c9 0 17 8 17 18l0 143c0 10-8 18-17 18z m-18-144l-300 0 0 109 300 0 0-109z m18-59l-185 0c-10 0-18-8-18-18l0-143c0-10 8-18 18-18l185 0c9 0 17 8 17 18l0 143c0 10-8 18-17 18z m-18-144l-150 0 0 109 150 0z m-225 144l-93 0c-9 0-17-8-17-18l0-143c0-10 8-18 17-18l93 0c9 0 17 8 17 18l0 143c0 10-8 18-17 18z m-18-144l-57 0 0 109 57 0 0-109z"/>
<glyph glyph-name="grid7" unicode="&#53;" d="M447 7l-382 0c-32 0-58 26-58 58l0 382c0 32 26 58 58 58l382 0c32 0 58-26 58-58l0-382c0-32-26-58-58-58z m-382 475c-19 0-35-16-35-35l0-382c0-19 16-35 35-35l382 0c19 0 35 16 35 35l0 382c0 19-16 35-35 35z m426-83l-470 0c-6 0-11 5-11 12 0 6 5 11 11 11l470 0c6 0 11-5 11-11 0-7-5-12-11-12z m-364 42l-70 0c-7 0-12 5-12 11 0 7 5 12 12 12l70 0c6 0 11-5 11-12 0-6-5-11-11-11z m227 11c0-14-12-25-26-25-14 0-26 11-26 25 0 15 12 26 26 26 14 0 26-11 26-26z m58 0c0-14-11-25-26-25-14 0-25 11-25 25 0 15 11 26 25 26 15 0 26-11 26-26z m59 0c0-14-12-25-26-25-14 0-26 11-26 25 0 15 12 26 26 26 14 0 26-11 26-26z m-106-301l-54 0c-4 0-8 3-8 8l0 57c0 5 4 8 8 8l54 0c4 0 8-3 8-8l0-57c0-5-4-8-8-8z m-46 16l38 0 0 41-38 0z m-36-16l-54 0c-4 0-8 3-8 8l0 57c0 5 4 8 8 8l54 0c4 0 8-3 8-8l0-57c0-5-4-8-8-8z m-46 16l38 0 0 41-38 0z m-36-16l-54 0c-4 0-8 3-8 8l0 57c0 5 4 8 8 8l54 0c4 0 8-3 8-8l0-57c0-5-4-8-8-8z m-46 16l38 0 0 41-38 0z m210 74l-218 0c-4 0-8 4-8 8l0 49c0 5 4 8 8 8l218 0c4 0 8-3 8-8l0-49c0-4-4-8-8-8z m-210 16l202 0 0 33-202 0z"/>
<glyph glyph-name="grid8" unicode="&#54;" d="M454 500c0 3-3 6-6 6l-384 0c-3 0-6-3-6-6l0-488c0-3 3-6 6-6l300 0c2 0 3 1 4 2l84 84c1 1 2 2 2 4l0 404z m-385-6l374 0 0-392-23 0 0 52c0 3-3 5-5 5l-159 0c-3 0-6-2-6-5l0-107c0-3 3-6 6-6l103 0 0-22-290 0z m339-392l-44 0c-3 0-5-2-5-5l0-45-97 0 0 95 146 0z m-38-75l0 64 64 0-32-31z m-272 274l316 0c3 0 5 3 5 6l0 155c0 3-2 5-5 5l-316 0c-2 0-5-2-5-5l0-155c0-4 2-6 5-6z m6 155l304 0 0-144-304 0z m125-172l-131 0c-2 0-5-3-5-6l0-231c0-3 3-6 5-6l131 0c3 0 6 3 6 6l0 231c0 3-3 6-6 6z m-7-232l-118 0 0 220 118 0z m192 232l-158 0c-3 0-6-3-6-6l0-99c0-3 3-6 6-6l158 0c2 0 5 3 5 6l0 99c0 3-2 6-5 6z m-6-99l-146 0 0 87 146 0z"/>
<glyph glyph-name="grid9" unicode="&#55;" d="M7 245l108 0 0-108-108 0z m0 130l108 0 0-108-108 0z m0 130l498 0 0-108-498 0z m390-260l108 0 0-108-108 0z m-260 0l107 0 0-108-107 0z m260 130l108 0 0-108-108 0z m-130-260l107 0 0-108-107 0z m-260 0l108 0 0-108-108 0z m260 260l107 0 0-108-107 0z m130-260l108 0 0-108-108 0z m-130 130l107 0 0-108-107 0z m-130 130l107 0 0-108-107 0z m0-260l107 0 0-108-107 0z"/>
<glyph glyph-name="add" unicode="&#109;" d="M256 509c-140 0-253-113-253-253 0-140 113-253 253-253 140 0 253 113 253 253 0 140-113 253-253 253z m0-478c-124 0-225 101-225 225 0 124 101 225 225 225 124 0 225-101 225-225 0 0 0 0 0 0 0-124-101-225-225-225z m114 239l-100 0 0 100c0 7-6 14-14 14-8 0-14-7-14-14l0-100-100 0c-7 0-14-6-14-14 0-8 7-14 14-14l100 0 0-100c0-7 6-14 14-14 8 0 14 7 14 14l0 100 100 0c7 0 14 6 14 14 0 8-7 14-14 14z"/>
<glyph glyph-name="admin-1" unicode="&#97;" d="M496 312l-31 0c-5 18-12 36-22 52l23 23c3 3 3 8 0 11l-68 68c-3 3-8 3-11 0l-23-23c-16 10-34 17-52 22l0 31c0 5-3 8-8 8l-96 0c-5 0-8-3-8-8l0-31c-18-5-36-12-52-22l-23 23c-3 3-8 3-11 0l-68-68c-3-3-3-8 0-11l23-23c-10-16-17-34-22-52l-31 0c-5 0-8-3-8-8l0-96c0-5 3-8 8-8l31 0c5-18 12-36 22-52l-23-23c-3-3-3-8 0-11l68-68c3-3 8-3 11 0l23 23c16-10 34-17 52-22l0-31c0-5 3-8 8-8l96 0c5 0 8 3 8 8l0 31c18 5 36 12 52 22l23-23c3-3 8-3 11 0l68 68c3 3 3 8 0 11l-23 23c10 16 17 34 22 52l31 0c5 0 8 3 8 8l0 96c0 5-3 8-8 8z m-8-96l-29 0c-4 0-8-2-8-6-5-21-13-41-24-59-2-3-2-7 0-10l21-21-56-56-21 21c-2 2-6 3-9 0-19-11-38-19-60-24-4 0-6-4-6-8l0-29-80 0 0 29c0 4-2 8-6 8-21 5-41 13-60 24-3 2-7 2-9 0l-21-21-56 56 21 21c2 2 3 6 0 9-11 19-19 38-24 59 0 4-4 6-8 6l-29 0 0 81 29 0c4 0 8 2 8 6 5 21 13 41 24 59 2 3 2 7 0 10l-21 21 56 56 21-21c2-2 6-3 9 0 19 11 38 19 60 24 4 0 6 4 6 8l0 29 80 0 0-29c0-4 2-8 6-8 21-5 41-13 60-24 3-2 7-2 9 0l21 21 56-56-21-21c-2-2-3-6 0-9 11-19 19-38 24-59 0-4 4-6 8-6l29 0z m-72 40c0-45-18-86-49-115-17 44-61 75-111 75 35 0 64 29 64 64 0 35-29 64-64 64-35 0-64-29-64-64 0-35 29-64 64-64-50 0-94-31-111-75-31 29-49 70-49 115 0 88 72 160 160 160 88 0 160-72 160-160z"/>
<glyph glyph-name="alert1" unicode="&#68;" d="M207 442c27 47 71 47 98 0l188-323c27-46 5-84-49-84l-376 0c-54 0-76 38-49 84z m16-136l0-106c0-9 8-16 17-16l32 0c9 0 17 7 17 16l0 106c0 9-8 17-17 17l-32 0c-9 0-17-8-17-17z m0-163l0-32c0-10 8-17 17-17l32 0c9 0 17 8 17 17l0 32c0 9-8 16-17 16l-32 0c-9 0-17-7-17-16z"/>
<glyph glyph-name="barchart" unicode="&#69;" d="M17 471c-5-1-10-6-10-12l0-407c0-5 6-11 12-11l474 0c6 0 12 5 12 11 0 6-6 12-12 12l-45 0 0 237c0 6-5 11-10 11-1 0-1 0-1 0l-68 0c-6 0-11-5-11-11l0-237-57 0 0 135c0 6-5 12-11 12l-68 0c0 0-1 0-1 0-6-1-10-6-10-12l0-135-57 0 0 192c0 6-5 11-11 11l-68 0c0 0-1 0-1 0-5 0-10-6-10-11l0-192-34 0 0 219 112 67 107-75c4-3 10-3 14 0l181 147c3 3 5 9 3 13-1 4-6 8-10 8-3-1-5-2-7-3l-174-142-107 75c-3 2-8 2-12 0l-107-63 0 149c0 7-6 12-13 12z m363-181l45 0 0-226-45 0z m-294-45l46 0 0-181-46 0z m147-57l46 0 0-124-46 0z"/>
<glyph glyph-name="checkboxes1" unicode="&#70;" d="M58 505c-3-1-5-3-5-6l0-486c0-3 3-6 6-6l394 0c3 0 6 3 6 6l0 486c0 3-3 6-6 6l-394 0c0 0 0 0-1 0z m7-12l382 0 0-474-382 0z m39-52c-2 0-4-3-4-6l0-69c0-3 2-6 6-6l92 0c3 0 6 3 6 6l0 69c0 4-3 6-6 6l-92 0c-1 0-1 0-2 0z m7-11l81 0 0-58-81 0z m144-24c-3 0-6-3-5-6 0-3 3-5 6-5l150 0c4 0 6 2 6 6 0 3-2 5-5 5 0 0-1 0-1 0l-150 0c0 0-1 0-1 0z m-151-110c-2 0-4-2-4-5l0-70c0-3 2-5 6-5l92 0c3 0 6 2 6 5l0 70c0 3-3 5-6 5l-92 0c-1 1-1 1-2 0z m7-11l81 0 0-58-81 0z m144-23c-3-1-6-3-5-7 0-3 3-5 6-5l150 0c4 0 6 3 6 6 0 3-2 6-5 6 0 0-1 0-1 0l-150 0c0 0-1 0-1 0z m-28-69c-2-1-3-1-4-3l-61-77-13 9c-2 2-6 1-8-2-2-2-1-6 2-8l17-11c3-2 6-1 8 1l64 81c2 3 1 6-1 8-1 1-3 2-4 2z m-122-41c-3 0-5-3-5-6l0-69c0-4 2-6 6-6l92 0c3 0 6 2 6 6l0 23c0 3-3 6-6 6-3 0-6-3-6-6 0 0 0 0 0 0l0-18-81 0 0 58 41 0c3 0 6 3 6 6 0 3-3 6-6 6 0 0 0 0 0 0l-46 0c-1 0-1 0-1 0z m150-35c-3 0-6-3-5-6 0-3 3-6 6-5l150 0c4-1 6 2 6 5 0 3-2 6-5 6 0 0-1 0-1 0l-150 0c0 0-1 0-1 0z"/>
<glyph glyph-name="close" unicode="&#71;" d="M315 255l177 176c16 16 16 43 0 58-17 16-43 16-58 0l-177-176-179 177c-16 17-42 17-58 0-16-16-16-43 0-58l177-175-177-177c-16-17-16-43 0-58 9-9 20-13 29-13 11 0 21 4 29 13l179 175 177-175c8-9 19-13 29-13 11 0 20 4 29 13 16 16 16 43 0 58z"/>
<glyph glyph-name="dashboard" unicode="&#72;" d="M233 318l-227 0 0 188 227 0z m-196 32l164 0 0 125-164 0z m196-344l-227 0 0 266 227 0z m-196 31l164 0 0 203-164 0z m469 203l-227 0 0 266 227 0z m-195 32l164 0 0 203-164 0z m195-266l-227 0 0 188 227 0z m-195 31l164 0 0 125-164 0z"/>
<glyph glyph-name="database" unicode="&#100;" d="M256 504c-36 0-70-8-94-22-25-14-43-35-43-59l0-213c0-24 18-45 43-58 22-13 51-21 84-22l0-53c-11-3-20-12-24-24l-148 0 0-20 148 0c4-14 18-25 34-25 16 0 30 11 34 25l148 0 0 20-148 0c-4 12-13 21-24 24l0 53c33 1 62 9 84 22 25 13 43 34 43 58l0 213c0 24-18 45-43 59-24 14-58 22-94 22z m0-20c33 0 63-8 84-20 21-11 32-26 32-41 0-15-11-29-32-41-21-12-51-20-84-20-33 0-64 8-84 20-21 12-32 26-32 41 0 15 11 30 32 41 21 12 51 20 84 20z m-116-104c6-6 13-11 22-16 24-14 58-22 94-22 36 0 70 8 94 22 9 5 16 10 22 16l0-28c0-14-11-29-32-41-21-12-51-20-84-20-33 0-64 8-84 20-21 12-32 27-32 41l0 28z m0-71c6-6 13-11 22-16 24-14 58-22 94-22 36 0 70 8 94 22 9 5 16 10 22 16l0-28c0-14-11-29-32-41-21-12-51-19-84-19-33 0-64 7-84 19-21 12-32 27-32 41l0 28z m0-70c6-6 13-12 22-17 24-13 58-22 94-22 36 0 70 9 94 22 9 5 16 11 22 17l0-29c0-14-11-29-32-41-21-12-51-19-84-19-33 0-64 7-84 19-21 12-32 27-32 41l0 29z m116-180c8 0 15-7 15-16 0-8-7-15-15-15-9 0-15 7-15 15 0 9 6 16 15 16z"/>
<glyph glyph-name="datatable1" unicode="&#102;" d="M8 424l0-336 496 0 0 336z m164-331l-159 0 0 78 159 0 0-78z m0 83l-159 0 0 77 159 0 0-77z m0 83l-159 0 0 77 159 0 0-77z m163-166l-158 0 0 78 158 0z m0 83l-158 0 0 77 158 0z m0 83l-158 0 0 77 158 0z m164-166l-159 0 0 78 159 0z m0 83l-159 0 0 77 159 0z m0 83l-159 0 0 77 159 0z"/>
<glyph glyph-name="datatable" unicode="&#101;" d="M69 17c0-5 5-10 11-10l352 0c6 0 11 5 11 10l0 380c0 3-1 6-3 8l-98 97c-2 2-4 3-7 3l-255 0c-6 0-11-5-11-10l0-478z m353 11l-332 0 0 456 228 0 0-93c0-6 5-10 11-10l93 0 0-353z m-291 280l0-187c0-6 5-10 11-10l228 0c6 0 11 4 11 10l0 187c0 6-5 10-11 10l-228 0c-6 0-11-4-11-10z m21-10l83 0 0-42-83 0z m0-63l83 0 0-41-83 0z m0-62l83 0 0-42-83 0z m104 125l104 0 0-42-104 0z m0-63l104 0 0-41-104 0z m0-62l104 0 0-42-104 0z"/>
<glyph glyph-name="datagroup" unicode="&#74;" d="M130 203l-33-15-53 0c-6 0-11-5-11-11l0-34c0-21 17-38 39-38 21 0 38 17 38 38l0 28 31 14 104-48 0-46-17 0c-5 0-10-5-10-10l0-35c0-21 17-38 38-38 21 0 39 17 39 38l0 35c0 5-5 10-11 10l-17 0 0 46 104 48 31-15 0-27c0-22 17-39 38-39 22 0 39 17 39 39l0 34c0 6-5 11-11 11l-54 0-32 15 0 115 33 11 53 0c6 0 11 4 11 10l0 35c0 21-17 38-39 38-21 0-38-17-38-38l0-27-30-10-105 48 0 35 16 0c6 0 11 5 11 11l0 35c0 21-17 38-38 38-21 0-39-17-39-38l0-35c0-5 5-10 11-10l17 0 0-36-104-48-31 14 0 27c0 22-17 39-38 39-22 0-39-17-39-39l0-34c0-6 5-11 11-11l53 0 33-15z m143-157c0-10-8-17-17-17-10 0-17 7-17 17l0 24 34 0z m-34 420c0 9 8 17 17 17 10 0 17-8 17-17l0-24-34 0z m17-183l-90 42 90 41 90-42z m-167-140c0-9-8-17-17-17-10 0-18 8-18 17l0 24 35 0 0-24z m62 166l94-44 0-105-94 43z m116-149l0 105 94 44 0-106z m156 7l35 0 0-24c0-9-8-17-18-17-9 0-17 8-17 17z m0 207c0 9 8 17 17 17 10 0 18-8 18-17l0-24-35 0z m-334-19l-35 0 0 23c0 10 8 18 18 18 9 0 17-8 17-18z"/>
<glyph glyph-name="delete" unicode="&#103;" d="M408 446l-65 0 0 4c0 31-25 56-55 56l-64 0c-30 0-55-25-55-56l0-4-65 0c-30 0-55-25-55-56l0-15c0-25 17-46 40-53l0-226c0-50 40-90 90-90l154 0c50 0 90 40 90 90l0 227c23 7 40 27 40 53l0 15c0 30-25 55-55 55z m-211 4c0 16 12 28 27 28l64 0c15 0 27-12 27-28l0-4-118 0 0 4z m136-416l-154 0c-35 0-62 28-62 62l0 224 278 0 0-224c0-34-28-62-62-62z m102 341c0-15-12-27-27-27l-304 0c-15 0-27 12-27 27l0 15c0 16 12 28 27 28l304 0c15 0 27-12 27-28l0-15z"/>
<glyph glyph-name="department" unicode="&#77;" d="M464 304c-2 4-5 7-8 11-12 15-24 31-24 52 0 26 22 51 22 51 8 10 8 24 0 34l-30 35c-4 6-11 9-18 9-6 0-11-2-15-5 0 0-31-23-60-23-27 0-58 22-58 22-9 6-24 7-34 2 0 0-30-16-58-16-29 0-60 23-60 23-4 3-9 5-15 5-7 0-14-3-18-8l-30-36c-8-9-8-24 0-34 0 0 22-24 22-51 0-21-12-37-24-52-3-3-6-7-8-11-27-37-31-147 0-185 68-85 187-116 192-117 5-1 12-2 19-2 3 0 8 0 13 1 5 1 124 24 192 109 31 39 27 149 0 186z m-14-175c-64-80-180-102-181-103-3 0-6 0-10 0-6 0-11 0-15 1-1 0-118 30-182 111-24 29-24 131 0 164 3 4 5 7 8 11 13 16 27 35 27 62 0 33-25 62-26 63-2 3-2 8 0 11l30 35c1 2 3 2 5 2 1 0 3 0 4-1 2-1 36-26 71-26 33 0 65 17 66 17 4 3 12 2 16-1 1-1 35-25 68-25 35 0 69 26 71 27 1 1 3 1 4 1 2 0 4-1 5-2l30-36c2-2 2-7 0-10-1-1-26-30-26-63 0-28 14-46 27-63 3-3 5-7 8-10 24-34 24-135 0-165z m-60 171l-84 0c-4 0-10 4-11 8l-26 80c-3 11-10 12-13 12-3 0-10-1-13-12l-26-80c-1-4-7-8-11-8l-84 0c-11 0-14-5-15-8-2-4-2-10 7-16l68-50c3-2 5-9 4-13l-26-80c-2-6-2-11 1-15 4-5 12-6 20 0l68 49c4 3 10 3 14 0l68-49c4-3 7-4 11-4 3 0 7 1 9 4 3 4 3 9 1 15l-26 80c-1 4 1 11 4 13l68 50c9 6 9 12 7 16-1 3-4 8-15 8z m-70-60c-10-7-15-21-11-32l22-69-58 43c-5 3-11 5-17 5-6 0-12-2-17-5l-58-43 22 69c4 11-1 25-11 32l-58 43 72 0c12 0 24 8 28 20l22 68 22-68c4-12 16-20 28-20l72 0z"/>
<glyph glyph-name="edit" unicode="&#104;" d="M333 475l-284-284c-3-3-5-6-5-9l-36-141c-4-15 5-29 19-33 3 0 5-1 7-1 2 0 5 1 7 1l141 35c3 1 6 3 9 6l284 284c39 39 40 103 0 142-39 39-103 39-142 0z m-153-381l-86 86 218 218 86-86z m267 267l-21-20-85 85 21 21c23 23 61 23 85 0 23-24 23-62 0-86z"/>
<glyph glyph-name="folder" unicode="&#79;" d="M58 448c-28 0-51-23-51-51l0-294c0-11 4-21 11-28 7-7 18-11 29-11l418 0c11 0 22 4 29 11 7 7 11 17 11 28l0 239c0 27-22 50-50 50l-189 0-5 15c-9 26-36 41-62 41z m0-22l141 0c17 0 35-11 41-27l28-79c2-4 6-7 11-7l186 0c6 0 10-2 13-5 2-2 4-6 4-12l0-193c0-6-2-10-4-12-3-3-7-5-13-5l-418 0c-6 0-10 2-13 5-2 2-4 6-4 12l0 294c0 15 14 29 28 29z m216-57l181 0c15 0 27-12 27-27l0-10c-5 2-11 3-17 3l-178 0z"/>
<glyph glyph-name="grid1" unicode="&#78;" d="M453 505l-395 0c-28 0-51-23-51-51l0-396c0-28 23-51 51-51l396 0c28 0 51 23 51 51l0 396c-1 28-24 51-52 51z m-395-30l396 0c11 0 21-9 21-21l0-50-438 0 0 50c0 12 9 21 21 21z m132-316l0 94 128 0 0-94z m128-30l0-92-128 0 0 92z m0 246l0-93-128 0 0 93z m-158-93l-123 0 0 93 123 0z m0-29l0-94-123 0 0 94z m186 0l129 0 0-94-129 0z m0 29l0 93 129 0 0-93z m-309-223l0 70 123 0 0-92-102 0c-12 0-21 10-21 22z m416-22l-107 0 0 92 129 0 0-71c0-11-10-21-22-21z"/>
<glyph glyph-name="grid2" unicode="&#80;" d="M66 479c-18 0-33-15-33-33 0-18 15-33 33-33 18 0 33 15 33 33 0 18-15 33-33 33z m0-49c-9 0-17 7-17 16 0 9 8 17 17 17 9 0 16-8 16-17 0-9-7-16-16-16z m74 49c-18 0-33-15-33-33 0-18 15-33 33-33 19 0 33 15 33 33 0 18-14 33-33 33z m0-49c-9 0-16 7-16 16 0 9 7 17 16 17 9 0 17-8 17-17 0-9-8-16-17-16z m75 49c-19 0-33-15-33-33 0-18 14-33 33-33 18 0 33 15 33 33 0 18-15 33-33 33z m0-49c-9 0-17 7-17 16 0 9 8 17 17 17 9 0 16-8 16-17 0-9-7-16-16-16z m-207 74l0-496 496 0 0 496z m17-17l462 0 0-82-462 0z m462-462l-462 0 0 363 462 0z m-322 330l-116 0 0-132 116 0z m-16-116l-83 0 0 100 83 0z m165 116l-116 0 0-132 116 0z m-17-116l-16 0c0 5-4 9-8 9-5 0-9-4-9-9l-33 0c0 5-4 9-8 9-5 0-8-4-8-9l0 100c0-5 3-9 8-9 4 0 8 4 8 9l33 0c0-5 4-9 9-9 4 0 8 4 8 9l16 0 0-17c-4 0-8-4-8-8 0-5 4-8 8-8l0-33c-4 0-8-4-8-9 0-4 4-8 8-8z m166 116l-116 0 0-132 116 0z m-17-116l-83 0 0 100 83 0z m-281-181l0 132-116 0 0-132z m-99 115l83 0 0-99-83 0z m248 17l-116 0 0-132 116 0z m-17-116l-82 0 0 99 82 0z m166 116l-116 0 0-132 116 0z m-17-116l-83 0 0 99 83 0z m-165 215c0-4-4-8-8-8-5 0-9 4-9 8 0 5 4 8 9 8 4 0 8-3 8-8z m-25 25c0-5-4-8-8-8-5 0-9 3-9 8 0 4 4 8 9 8 4 0 8-4 8-8z m-25-25c0-4-3-8-8-8-5 0-8 4-8 8 0 5 3 8 8 8 5 0 8-3 8-8z m25-25c0-4-4-8-8-8-5 0-9 4-9 8 0 5 4 9 9 9 4 0 8-4 8-9z"/>
<glyph glyph-name="list1" unicode="&#84;" d="M8 504l55 0 0-55-55 0z m110 0l386 0 0-55-386 0z m-110-110l55 0 0-55-55 0z m110 0l386 0 0-55-386 0z m-110-110l55 0 0-56-55 0z m110 0l386 0 0-56-386 0z m-110-111l55 0 0-55-55 0z m110 0l386 0 0-55-386 0z m-110-110l55 0 0-55-55 0z m110 0l386 0 0-55-386 0z"/>
<glyph glyph-name="list2" unicode="&#87;" d="M175 272l-55 0 0 55 55 0z m-43 12l31 0 0 31-31 0z m43 74l-55 0 0 54 55 0z m-43 11l31 0 0 31-31 0z m43-183l-55 0 0 55 55 0z m-43 12l31 0 0 31-31 0z m43-97l-55 0 0 54 55 0z m-43 11l31 0 0 31-31 0z m257 246l-184 0 0 53 184 0z m-172 11l161 0 0 31-161 0z m172-97l-184 0 0 54 184 0z m-172 12l161 0 0 31-161 0z m172-98l-184 0 0 54 184 0z m-172 12l161 0 0 31-161 0z m172-97l-184 0 0 53 184 0z m-172 11l161 0 0 31-161 0z m224-105l-370 0 0 498 370 0z m-342 27l314 0 0 444-314 0z"/>
<glyph glyph-name="loadingbar" unicode="&#89;" d="M131 288c-18 0-33-14-33-32 0-18 15-32 33-32 18 0 32 14 32 32 0 18-14 32-32 32z m125 15c-26 0-48-21-48-47 0-26 22-47 48-47 26 0 47 21 47 47 0 26-21 47-47 47z m-226-23c-13 0-23-11-23-24 0-13 10-24 23-24 14 0 24 11 24 24 0 13-10 24-24 24z m351 8c-18 0-32-14-32-32 0-18 14-32 32-32 18 0 32 14 32 32 0 18-14 32-32 32z m101-8c-14 0-24-11-24-24 0-13 10-24 24-24 13 0 23 11 23 24 0 13-10 24-23 24z"/>
<glyph glyph-name="loadingbar1" unicode="&#48;" d="M412 349c-51 0-92-42-92-93 0-51 41-93 92-93 51 0 93 42 93 93 0 51-42 93-93 93z m-221-34c-32 0-58-27-58-59 0-32 26-59 58-59 33 0 59 27 59 59 0 32-26 59-59 59z m-149-24c-20 0-35-16-35-35 0-19 15-35 35-35 19 0 34 16 34 35 0 19-15 35-34 35z"/>
<glyph glyph-name="location" unicode="&#50;" d="M256 70c-23 0-187 129-187 247 0 104 84 187 187 187 103 0 187-83 187-187 0-118-164-247-187-247z m0 411c-90 0-163-74-162-164 0-105 162-222 162-222 0 0 162 117 162 222 1 90-72 164-162 164z m0-236c-34 0-62 27-62 62 0 34 28 62 62 62 34 0 62-28 62-62 0-35-28-62-62-62z m0 99c-21 0-37-17-37-37 0-21 16-38 37-38 21 0 37 17 37 38 0 20-16 37-37 37z m-115-225c-6-6-9-15-10-24 0-34 56-62 125-62 69 0 125 28 125 62 0 8-8 18-13 25l23 13c9-11 14-24 15-38 0-48-67-87-150-87-83 0-150 39-150 87 1 15 7 29 17 39z"/>
<glyph glyph-name="minus1" unicode="&#52;" d="M256 504c-137 0-248-111-248-248 0-137 111-248 248-248 137 0 248 111 248 248 0 137-111 248-248 248z m0-47c112 0 201-90 201-201 0-111-90-201-201-201-111 0-201 90-201 201 0 111 90 201 201 201z m-84-177c-12-1-22-12-22-25 1-13 12-23 25-22l162 0c13-1 24 10 24 23 1 12-10 23-23 24 0 0 0 0-1 0l-162 0c-1 0-2 0-3 0z"/>
<glyph glyph-name="more" unicode="&#111;" d="M127 256c0 32-26 57-57 57-32 0-58-25-58-57 0-32 26-57 58-57 31 0 57 25 57 57z m-102 0c0 24 20 43 44 43 24 0 43-19 43-43 0-24-19-43-43-43-24 0-44 19-44 43z m287 0c0 32-25 57-57 57-32 0-57-25-57-57 0-32 25-57 57-57 32 0 57 25 57 57z m-101 0c0 24 19 43 44 43 24 0 43-19 43-43 0-24-19-43-43-43-25 0-44 19-44 43z m287 0c0 32-25 57-57 57-32 0-57-25-57-57 0-32 25-57 57-57 31 0 57 25 57 57z m-101 0c0 24 19 43 43 43 24 0 44-19 44-43 0-24-19-43-43-43-24 0-44 19-44 43z"/>
<glyph glyph-name="org" unicode="&#112;" d="M73 231c0-4 3-8 8-8 4 0 8 4 8 8l0 19 336 0 0-19c0-4 3-8 8-8 4 0 7 4 7 8l0 27c0 4-3 8-7 8l-352 0c-5 0-8-4-8-8z m191 50c0 4-3 8-7 8-5 0-8-4-8-8l0-23c0-4 3-8 8-8 4 0 7 4 7 8z m16 130c1 10-4 17-11 20-4 3-9 4-14 4-5 0-9-1-13-3-6-4-10-11-9-22l0 0c1-2 0-4-2-6-5-7 5-17 5-17l-5-6 5 6c1-1 2-3 2-4 1-3 2-6 4-8 0-2 1-3 2-4l13-5 12 5c1 1 1 2 2 4 2 2 3 5 4 9l0 0c0 1 1 2 2 3 2 2 9 11 4 17l0 0c-1 2-2 5-1 7z m-4 34c12-6 20-18 19-34 9-14-2-29-6-33-1-4-3-7-4-10-2-3-3-6-5-8-1-1-2-2-4-3l0 0-16-7c-2-1-4-1-6 0l3 7-3-7-15 7c-2 0-4 1-5 2l0 0c-2 2-4 5-6 9-2 2-3 6-4 10-4 4-15 19-6 33-2 17 5 28 16 34 6 4 14 5 21 5 7 0 15-2 21-5z m39-131c-4 23-11 26-29 35-4 2-8 4-13 7l-13-6-3 7 3-7c-3-1-5-1-7 0l-13 6c-5-3-9-5-13-7-17-9-25-12-29-35z m-22 49c25-12 34-17 39-56 0 0 0-1 0-1 0-4-4-8-8-8l-135 0c0 0 0 0-1 0-4 1-7 5-6 9 4 39 13 44 38 56 5 2 10 5 16 8 2 1 5 2 7 1l-3-8 3 8 14-6 13 5c2 1 5 2 7 0 6-3 12-6 16-8z m-14-189c1 10-4 17-11 21-4 2-9 3-14 3-4 0-9-1-13-3-6-3-10-10-8-21l0 0c0-3-1-5-2-6-5-8 5-18 5-18l-6-5 6 5c1-1 1-2 2-3 1-4 2-6 3-9 1-1 1-2 2-3l13-6 12 5c1 2 2 3 3 4 1 3 2 6 3 9l0 0c0 2 1 3 2 4 2 2 10 10 5 17l-1 0c-1 2-2 4-1 6z m-4 35c12-7 21-18 20-34 8-15-3-29-7-34-1-4-2-7-4-10-1-3-3-5-5-8-1-1-2-2-3-2l0 0-16-7c-2-1-5-1-7 0l3 7-3-7-15 6c-2 0-4 1-5 3l0 0c-2 2-4 5-6 8-1 3-3 6-4 10-4 5-15 19-6 34-1 17 6 28 17 34 6 3 13 5 20 5 8 0 15-2 21-5z m39-132c-4 23-11 27-28 36-4 2-9 4-14 6l-13-5-3 7 3-7c-2-1-5-1-7 0l-12 5c-5-2-10-4-14-6-17-9-24-13-28-36l116 0z m-21 49c24-12 33-16 38-55 0-1 0-1 0-2 0-4-3-7-8-7l-134 0c-1 0-1 0-1 0-5 0-8 4-7 8 5 40 14 44 38 56 5 3 10 5 16 9 2 1 5 1 7 0l-3-7 3 7 14-6 13 6c2 1 5 1 7 0l0 0c7-4 12-6 17-9z m159 48c2 10-3 17-11 21-4 2-9 3-13 3-5 0-10-1-13-3-7-3-11-10-9-21l0 0c0-3 0-5-2-6-5-8 5-18 5-18l-6-5 6 5c1-1 2-2 2-3 1-4 2-6 3-9 1-1 2-2 3-3l12-6 12 5c1 2 2 3 3 4 1 3 2 6 3 9 1 2 2 3 3 4 1 2 9 11 4 17-2 2-2 4-2 6z m-3 35c12-7 20-18 19-34 9-15-2-29-6-34-1-4-3-7-4-10-2-3-4-6-6-8-1-1-2-2-3-2l0 0-16-7c-2-1-4-1-7 0l3 7-3-7-15 6c-1 0-3 1-4 3l5 5-5-5c-2 2-4 5-6 8-2 3-3 6-4 10-4 5-15 19-7 34-1 17 6 28 17 34 6 3 13 5 21 5 7 0 14-2 21-5z m39-132c-4 23-12 27-29 36-4 2-8 4-13 6l-14-5-3 7 4-7c-3-1-5-1-7 0l-13 5c-5-2-9-4-13-6-18-9-25-13-29-36l117 0z m-22 49c25-12 34-16 38-55 0-1 1-1 1-2 0-4-4-7-8-7l-135 0c0 0-1 0-1 0-4 0-7 4-7 8 5 40 14 44 39 56 4 3 10 5 16 9 2 1 4 1 7 0l-3-7 3 7 13-6 13 6c3 1 5 1 8 0l0 0c6-4 11-6 16-9z m-360 48c1 10-4 17-11 21-4 2-9 3-14 3-5 0-9-1-13-3-6-3-10-10-9-21l0 0c1-3 0-5-2-6-5-8 5-18 5-18l-5-5 5 5c1-1 2-2 2-3 1-4 2-6 4-9 0-1 1-2 2-3l13-6 12 5c0 1 1 3 2 4 1 3 3 6 4 9l0 0c0 2 1 3 2 4 2 2 9 10 4 17l0 0c-1 2-2 4-1 6z m-4 35c12-7 20-18 19-34 9-15-2-29-6-34-1-4-3-7-4-10-2-3-4-5-5-8-1-1-2-2-4-2l0 0-16-7c-2-1-4-1-6 0l3 7-3-7-15 6c-2 0-4 1-5 3l0 0c-2 2-4 5-6 8-2 3-3 6-4 10-4 5-15 19-7 34-1 17 6 28 17 34 6 3 14 5 21 5 7 0 15-2 21-5z m39-132c-4 23-11 27-29 36-4 2-8 4-13 6l-13-5-3 7 3-7c-3-1-5-1-7 0l-13 5c-5-2-9-4-13-6-17-9-25-13-29-36l117 0z m-22 49c25-12 34-16 39-55 0-1 0-1 0-2 0-4-4-7-8-7l-135 0c0 0 0 0-1 0-4 0-7 4-6 8 4 40 13 44 38 56 5 3 10 5 16 9 2 1 5 1 7 0l-3-7 3 7 14-6 13 6c2 1 5 1 7 0l0 0c6-4 12-6 16-9z m130 109c0-5 3-8 8-8 4 0 7 3 7 8l0 23c0 4-3 8-7 8-5 0-8-4-8-8z"/>
<glyph glyph-name="paragraph" unicode="&#56;" d="M389 505c-11 0-20-9-20-20l0-458c0-11 9-20 20-20 11 0 20 9 20 20l0 458c0 11-9 20-20 20z m-91 0l-46 0c-87 0-158-71-158-158 0-86 71-157 158-157l26 0 0-163c0-11 9-20 20-20 11 0 20 9 20 20l0 458c0 11-9 20-20 20 0 0 0 0 0 0z m-163-158c0 65 52 118 117 118l25 0 0-235-25 0c-65 0-117 53-117 117z"/>
<glyph glyph-name="rename" unicode="&#119;" d="M338 408c-8 0-14-7-14-14 1-8 7-14 15-14 0 0 0 0 0 0l34 0 0-55-352 0c0 0-1 0-1 0-7-1-13-7-13-14l0-110c0-8 6-14 14-14l352 0 0-55-34 0c0 0-1 0-1 0-8-1-14-7-14-15 1-7 7-13 15-13 0 0 0 0 0 0l97 0c7 0 14 6 14 14 0 7-6 14-14 14 0 0 0 0 0 0l-35 0 0 55 90 0c8 0 14 6 14 14l0 110c0 8-6 14-14 14l-90 0 0 55 35 0c7 0 14 6 14 14 0 8-6 14-14 14 0 0 0 0 0 0l-97 0c0 0-1 0-1 0z m-303-111l338 0 0-82-338 0z m366 0l76 0 0-82-76 0z"/>
<glyph glyph-name="settings1" unicode="&#57;" d="M112 401c5 23 26 41 51 41 25 0 46-17 51-41l218 0c6 0 10-5 10-11 0-5-4-10-10-10l-218 0c-5-23-26-41-51-41-25 0-46 17-51 41l-32 0c-6 0-10 5-10 10 0 6 4 11 10 11z m20-11c0-17 14-31 31-31 17 0 31 14 31 31 0 18-14 32-31 32-17 0-31-14-31-32z m166-113c5 23 26 41 51 41 25 0 46-18 51-41l32 0c6 0 10-5 10-11 0-5-4-10-10-10l-32 0c-5-24-26-41-51-41-25 0-46 17-51 41l-218 0c-6 0-10 5-10 10 0 6 4 11 10 11z m20-11c0-17 14-31 31-31 17 0 31 14 31 31 0 18-14 31-31 31-17 0-31-14-31-31z m-123-113c5 23 25 41 51 41 25 0 46-18 50-41l136 0c6 0 10-5 10-11 0-6-4-10-10-10l-136 0c-4-24-25-42-50-42-25 0-46 18-51 42l-115 0c-6 0-10 5-10 10 0 6 4 11 10 11z m20-11c0-17 14-31 31-31 17 0 31 14 31 31 0 17-14 31-31 31-18 0-31-14-31-31z"/>
<glyph glyph-name="sorting" unicode="&#35;" d="M512 369c0-2-2-4-4-4l-364 0c-2 0-4 2-4 4l0 12c0 2 2 3 4 3l364 0c2 0 4-1 4-3z m-84-63c0 2-2 4-4 4l-280 0c-2 0-4-2-4-4l0-12c0-2 2-3 4-3l280 0c2 0 4 1 4 3l0 12z m-93-74c0 2-2 3-4 3l-187 0c-2 0-4-1-4-3l0-12c0-2 2-4 4-4l187 0c2 0 4 2 4 4z m-279-34l0 186-19 0 0-186-37 0 47-70 46 70z m195-41c0 2-2 4-4 4l-103 0c-2 0-4-2-4-4l0-12c0-2 2-3 4-3l103 0c2 0 4 1 4 3z"/>
<glyph glyph-name="speed" unicode="&#36;" d="M430 251l44 163-180-133 74-20-44-163 180 133z m-130 130l-192 0c-7 0-13-6-13-13 0-8 6-14 13-14l192 0c8 0 14 6 14 14 0 7-6 13-14 13z m0-210l-192 0c-7 0-13-6-13-13 0-7 6-13 13-13l192 0c8 0 14 6 14 13 0 7-6 13-14 13z m-87 105l-192 0c-8 0-13-6-13-13 0-7 5-13 13-13l192 0c7 0 13 6 13 13 0 7-6 13-13 13z"/>
<glyph glyph-name="tabs" unicode="&#37;" d="M469 472l-110 0c-4 0-6 3-6 7 0 14-12 26-27 26l-283 0c-14 0-26-12-26-26l0-446c0-14 12-26 26-26l283 0c5 0 10 1 15 3 5-1 10 3 11 8 0 1 1 1 1 2l0 138 60 0c14 0 26 11 26 26l0 59c0 6-2 12-6 16 4 5 6 11 6 17l0 59c0 2-1 4-1 7l31 0c14 0 26 11 26 26l0 79c0 14-12 25-26 25z m-50-288c0-4-3-7-6-7l-61 0 0 72 61 0c3 0 6-3 6-6z m0 92c0-4-3-7-6-7l-61 0 0 53c0 4 1 19 7 19l51 0c1 0 2 0 3 0 3 0 6-3 6-7l0-58z m56 91c0-3-3-6-6-6l-110 0c-8 0-26-4-26-39l0-294c-2-1-4-1-7-2l-283 0c-3 0-6 3-6 7l0 446c0 3 3 6 6 6l283 0c4 0 7-3 7-6 0-15 12-27 26-27l110 0c3 0 6-3 6-6z m-195 27l-176 0c-5 0-9-5-9-10 0-5 4-10 9-10l176 0c5 0 9 5 9 10 0 5-4 10-9 10z m0-66l-176 0c-5 0-9-4-9-10 0-5 4-9 9-9l176 0c5 0 9 4 9 9 0 6-4 10-9 10z m0-66l-176 0c-5 0-9-4-9-10 0-5 4-10 9-10l176 0c5 0 9 5 9 10 0 6-4 10-9 10z m0-66l-176 0c-5 0-9-4-9-9 0-6 4-10 9-10l176 0c5 0 9 4 9 10 0 5-4 9-9 9z m-33-65l-110 0c-5 0-10-4-10-10 0-5 5-10 10-10l110 0c5 0 10 5 10 10 0 6-5 10-10 10z"/>
<glyph glyph-name="tasks" unicode="&#38;" d="M236 370l-121-120-50 51-22-22 61-62 11-11 11 11 132 131z m-215-11c-7 0-13-6-13-13l0-190c0-8 6-14 13-14l190 0c8 0 14 6 14 14l0 141-16-16 0-123-186 0 0 186 168 0 15 15z m251-46l0-16 232 0 0 16z m0-47l0-15 193 0 0 15z m0-46l0-16 209 0 0 16z"/>
<glyph glyph-name="tick" unicode="&#39;" d="M80 244c-9 13-28 16-41 6-14-10-17-28-7-42l140-189c13-18 39-16 50 2l259 439c9 15 4 33-10 41-14 9-33 4-41-10l-237-400z"/>
<glyph glyph-name="name" unicode="&#41;" d="M234 166l-28 7c19 4 29 10 30 10 3 2 4 5 5 8 0 4-2 7-4 9 0 0-14 13-14 55 0 43-11 65-33 65l-1 0c-6 6-13 9-26 9-19 0-60-19-60-74 0-42-14-55-14-55-3-2-4-5-4-8 0-4 2-7 5-9 0 0 10-6 29-10l-27-7c-26-6-43-29-43-55 0-3 1-5 3-7 2-2 4-3 7-3l207 0c6 0 11 4 11 10 0 26-18 49-43 55z m-163-45c4 12 13 22 26 25l37 9c3 1 6 4 7 8l4 15c1 3 0 6-1 8-2 3-5 4-8 5-10 1-19 3-25 5 6 11 13 29 13 59 0 44 32 53 39 53 9 0 10-1 15-6 2-2 5-3 7-3l5 0c6 0 12-14 12-44 0-30 6-48 12-59-6-2-14-4-25-5-3-1-5-2-7-5-2-2-2-5-2-8l4-15c1-4 4-7 8-8l37-9c12-3 22-13 25-25z m195 290c-5 0-10-4-10-10 0-6 5-10 10-10 6 0 11 4 11 10 0 6-5 10-11 10z m187-41l-135 0 0 31c0 29-23 52-52 52-28 0-51-23-51-52l0-31-156 0c-28 0-52-23-52-52l0-207c0-29 24-52 52-52l394 0c28 0 52 23 52 52l0 207c0 29-24 52-52 52z m-218 31c0 17 14 31 31 31 17 0 31-14 31-31l0-52-62 0 0 52z m249-290c0-17-14-31-31-31l-394 0c-17 0-31 14-31 31l0 207c0 17 14 31 31 31l156 0 0-10c0-6 4-10 10-10l83 0c5 0 10 4 10 10l0 10 135 0c17 0 31-14 31-31z m-31 52l-145 0c-6 0-11-5-11-11 0-5 5-10 11-10l145 0c6 0 10 5 10 10 0 6-4 11-10 11z m0 124l-145 0c-6 0-11-5-11-10 0-6 5-11 11-11l145 0c6 0 10 5 10 11 0 5-4 10-10 10z m0-62l-145 0c-6 0-11-5-11-10 0-6 5-11 11-11l145 0c6 0 10 5 10 11 0 5-4 10-10 10z"/>
<glyph glyph-name="info" unicode="&#108;" d="M265 146l-18 0c-11 0-20 9-20 20l0 116c0 11 9 20 20 20l18 0c11 0 20-9 20-20l0-115c0-12-9-21-20-21z m0 177l-18 0c-11 0-20 9-20 20l0 18c0 11 9 20 20 20l18 0c11 0 20-9 20-20l0-18c0-11-9-20-20-20z m-9-315c-137 0-248 111-248 248 0 137 111 248 248 248 137 0 248-111 248-248 0-137-111-248-248-248z m0 453c-113 0-205-92-205-205 0-113 92-205 205-205 113 0 205 92 205 205 0 113-92 205-205 205z"/>
<glyph glyph-name="blank" unicode="&#81;" d="M7 327c9 2 22 3 36 3 19 0 32-3 41-11 8-6 13-15 13-27 0-14-10-27-26-33l0 0c15-4 32-16 32-38 0-13-6-23-13-31-11-9-28-14-53-14-13 0-23 1-30 2z m20-62l17 0c21 0 33 11 33 25 0 18-13 25-33 25-9 0-14-1-17-1z m0-73c4 0 9 0 16 0 20 0 39 7 39 29 0 21-18 29-39 29l-16 0z m101 145l20 0 0-159-20 0z m113-159l-1 13-1 0c-6-8-18-16-33-16-22 0-33 16-33 31 0 27 23 41 65 41l0 2c0 9-3 25-25 25-10 0-20-3-28-8l-5 13c9 6 22 10 36 10 33 0 41-23 41-45l0-40c0-10 1-19 2-26z m-3 55c-21 0-46-3-46-24 0-13 9-19 19-19 14 0 23 9 26 18 1 2 1 4 1 6z m51 24c0 11 0 20-1 29l18 0 1-18 0 0c6 11 18 21 36 21 15 0 39-9 39-47l0-64-20 0 0 62c0 18-7 32-25 32-13 0-23-9-27-20-1-2-1-6-1-9l0-65-20 0z m144-21l1 0c2 4 6 9 9 13l32 37 24 0-42-44 48-64-24 0-38 52-10-12 0-40-19 0 0 159 19 0z"/>
<glyph glyph-name="rightarrow" unicode="&#113;" d="M256 48c-115 0-208 93-208 208 0 115 93 208 208 208 115 0 208-93 208-208 0-115-93-208-208-208m0-41c137 0 249 112 249 249 0 137-112 249-249 249-137 0-249-112-249-249 0-137 112-249 249-249z m-111 269l174 0c10 0 17-9 17-20 0-11-8-20-17-20l-174 0c-9 0-16 9-16 20 0 11 7 20 16 20z m150 74c6 0 11-2 15-7l68-73c7-8 7-20 0-27l-68-74c-8-9-20-9-28-2-9 8-9 20-2 29l56 60-56 60c-8 9-7 21 2 29 3 3 8 5 13 5z"/>
<glyph glyph-name="leftarrow" unicode="&#82;" d="M256 464c115 0 208-93 208-208 0-115-93-208-208-208-115 0-208 93-208 208 0 115 93 208 208 208m0 41c-137 0-249-112-249-249 0-137 112-249 249-249 137 0 249 112 249 249 0 137-112 249-249 249z m111-269l-174 0c-10 0-17 9-17 20 0 11 8 20 17 20l174 0c9 0 16-9 16-20 0-11-7-20-16-20z m-150-74c-6 0-11 2-15 7l-68 73c-7 8-7 20 0 27l68 74c8 9 20 9 28 2 9-8 9-20 2-29l-56-60 56-60c8-9 7-21-2-29-3-3-8-5-13-5z"/>
</font>
</defs>
</svg>
